<svg xmlns="http://www.w3.org/2000/svg" xmlns:xlink="http://www.w3.org/1999/xlink" style="display: none"><defs>
    <style>
      .cls-1 {
        fill: none;
        stroke: #fff;
        stroke-width: 1px;
        fill-rule: evenodd;
      }
    </style>
  </defs><symbol id="left-arrow">

  <symbol id="left-arrow" width="23.5" height="53" viewbox="0 0 23.5 53">
    <path id="Rounded_Rectangle_1_copy_25" data-name="Rounded Rectangle 1 copy 25" class="cls-1" d="M180.732,442.608L159,416.6,180.732,390.6" transform="translate(-158.5 -390.094)"/>
  </symbol>
</symbol><symbol id="raiting-info">
                  <symbol id="raiting-info" viewbox="0 0 420.3 420.3">

  							   <path opacity="0.3" d="M211.5,161.2V0c115,0.7,208.1,93.8,208.8,208.8H259.5C258.6,182.8,237.6,161.8,211.5,161.2z M208.8,161.2V0
  							      C93.8,0.7,0.7,93.8,0,208.8h160.9C161.8,182.8,182.8,161.9,208.8,161.2z M160.9,211.5H0c0.7,115,93.8,208.1,208.8,208.8V259.9
  							      C182.5,259.2,161.4,237.9,160.9,211.5z M211.5,259.9v160.4c115-0.7,208.1-93.8,208.8-208.8H259.5C259,237.9,237.8,259.2,211.5,259.9
  							      z"/>
  							   <g>
  							      <path id="green" class="chart__segment engineering" fill="#63BF76" d="M287.8,131.8c-3.7-3.6-7.7-7-11.9-10.1l-36,49.7c1.7,1.3,3.3,2.6,4.8,4.1L287.8,131.8z"/>
  							      <path id="green" class="chart__segment courtyard" fill="#63BF76" d="M298.8,144.4c-3.1-4.2-6.5-8.1-10.2-11.8l-43.1,43.7c1.4,1.5,2.8,3,4,4.7L298.8,144.4z"/>
  							      <path id="green" class="chart__segment security" fill="#63BF76" d="M250.2,181.8c1.3,1.9,2.6,3.8,3.6,5.9l54.8-27.6c-2.7-5.2-5.7-10.1-9.1-14.8L250.2,181.8z"/>
  							      <path id="green" class="chart__segment technology" fill="#63BF76" d="M315.6,176.9l-58.5,18.5c0.6,1.9,1.1,3.9,1.5,5.9l60.6-9.7C318.3,186.5,317.1,181.6,315.6,176.9z"/>
  							      <path id="orange" class="chart__segment parking" fill="#F1B43D" d="M256.7,194.3l58.5-18.5c-1.7-5.1-3.7-10-6.1-14.7l-54.8,27.6C255.3,190.5,256,192.4,256.7,194.3z"/>
  							      <path id="orange" class="chart__segment planings" fill="#F1B43D" d="M226.8,164.3c1.9,0.7,3.8,1.5,5.6,2.4l27.6-54.8c-4.6-2.3-9.5-4.4-14.4-6.1L226.8,164.3z"/>
  							      <path id="orange" class="chart__segment status " fill="#F1B43D" d="M259.5,208.8h61.4c-0.1-5.5-0.6-10.9-1.5-16.2l-60.6,9.7C259.2,204.5,259.4,206.6,259.5,208.8z"/>
  							      <path id="green-btn" class="chart__segment density-on-the-floor" fill="#63BF76" d="M219.6,162.3c2.1,0.4,4.1,0.9,6.1,1.6l18.8-58.4c-5-1.6-10.2-2.9-15.5-3.8L219.6,162.3z"/>
  							      <path id="red" class="chart__segment ceilings" fill="#E12742" d="M275,121c-4.4-3.2-9.1-6.1-13.9-8.6l-27.6,54.8c1.9,1,3.8,2.2,5.6,3.5L275,121z"/>
  							      <path id="orange" class="chart__segment medicine" fill="#F1B43D" d="M184.8,253c-7.1-4.3-13.1-10.3-17.3-17.5L115,267c9.5,16.1,23,29.5,39.1,39L184.8,253z"/>
  							      <path id="orange" class="chart__segment pop-density" fill="#F1B43D" d="M228,101.4c-5.4-0.9-10.9-1.3-16.4-1.4v61.3c2.4,0.1,4.7,0.3,7,0.7L228,101.4z"/>
  							      <path id="green" class="chart__segment district" fill="#63BF76" d="M185.6,167.9c6.9-3.9,14.7-6.3,23.2-6.5V100c-19.3,0.2-37.5,5.4-53.2,14.4L185.6,167.9z"/>
  							      <path id="green" class="chart__segment gr-transportation" fill="#63BF76" d="M252.8,235.5c-4.2,7.1-10.1,13.1-17.2,17.4l30.6,53.2c16.4-9.7,30.1-23.4,39.7-39.9L252.8,235.5z"/>
  							      <path id="green" class="chart__segment auto" fill="#63BF76" d="M253.4,234.5l53.1,30.7c9-15.9,14.2-34.2,14.4-53.8h-61.3C259.4,219.9,257.2,227.7,253.4,234.5z"/>
  							      <path id="orange" class="chart__segment metro" fill="#F1B43D" d="M234.7,253.5c-6.9,3.9-14.7,6.3-23.2,6.5v61.3c19.5-0.2,37.9-5.5,53.7-14.6L234.7,253.5z"/>
  							      <path id="green" class="chart__segment area" fill="#63BF76" d="M167.3,186.3L114.6,155c-9.3,15.9-14.7,34.2-15,53.8h61.4C161.2,200.6,163.5,193,167.3,186.3z"/>
  							      <path id="green" class="chart__segment entertainment" fill="#63BF76" d="M155,306.6c15.9,9.1,34.2,14.5,53.8,14.7V260c-8.4-0.2-16.2-2.5-23-6.4L155,306.6z"/>
  							      <path id="orange" class="chart__segment location" fill="#F1B43D" d="M167.9,185.3c4.1-6.9,9.9-12.7,16.8-16.8L154.6,115c-16.2,9.4-29.8,22.9-39.4,39L167.9,185.3z"/>
  							      <path id="green" class="chart__segment trading" fill="#63BF76" d="M167,234.5c-3.8-6.8-6-14.6-6.1-23H99.5c0.1,19.9,5.5,38.5,14.8,54.6L167,234.5z"/>
  							      <text id="engineering" transform="matrix(1 0 0 1 302.5096 132.433)" fill="#63BF76" font-family="Raleway-Light" font-size="10">&#x418;&#x43D;&#x436;&#x435;&#x43D;&#x435;&#x440;&#x438;&#x44F;</text>
  							      <text id="courtyard" transform="matrix(1 0 0 1 312.8096 144.7329)" fill="#63BF76" font-family="Raleway-Light" font-size="10">&#x414;&#x432;&#x43E;&#x440;</text>
  							      <text id="security" transform="matrix(1 0 0 1 322.8097 159.1768)" fill="#63BF76" font-family="Raleway-Light" font-size="10">&#x411;&#x435;&#x437;&#x43E;&#x43F;&#x430;&#x441;&#x43D;&#x43E;&#x441;&#x442;&#x44C;</text>
  							      <text id="parking" transform="matrix(1 0 0 1 328.0096 172.9129)" fill="#F1B43D" font-family="Raleway-Light" font-size="10">&#x41F;&#x430;&#x440;&#x43A;&#x43E;&#x432;&#x43A;&#x430;</text>
  							      <text id="technology" transform="matrix(1 0 0 1 332.0096 186.5204)" fill="#63BF76" font-family="Raleway-Light" font-size="10">&#x422;&#x435;&#x445;&#x43D;&#x43E;&#x43B;&#x43E;&#x433;&#x438;&#x44F;</text>
  							      <text id="status" transform="matrix(1 0 0 1 336.0096 200.7078)" fill="#F1B43D" font-family="Raleway-Light" font-size="10">&#x421;&#x442;&#x430;&#x442;&#x443;&#x441;</text>
  							      <text id="auto" transform="matrix(1 0 0 1 332.0096 241.3618)" fill="#63BF76" font-family="Raleway-Light" font-size="10">&#x410;&#x432;&#x442;&#x43E;&#x43C;&#x43E;&#x431;&#x438;&#x43B;&#x44C;</text>
  							      <text id="gr-transportation" transform="matrix(1 0 0 1 293.0096 301.3618)" fill="#63BF76" font-family="Raleway-Light" font-size="10">&#x41D;&#x430;&#x437;&#x435;&#x43C;&#x43D;&#x44B;&#x439; &#x442;&#x440;&#x430;&#x43D;&#x441;&#x43F;&#x43E;&#x440;&#x442;</text>
  							      <text id="metro" transform="matrix(1 0 0 1 235.6353 335.3618)" fill="#F1B43D" font-family="Raleway-Light" font-size="10">&#x41C;&#x435;&#x442;&#x440;&#x43E;</text>
  							      <text id="entertainment" transform="matrix(1 0 0 1 120.5096 335.3618)" fill="#63BF76" font-family="Raleway-Light" font-size="10">&#x420;&#x430;&#x437;&#x432;&#x43B;&#x435;&#x447;&#x435;&#x43D;&#x438;&#x44F;</text>
  							      <text id="medicine" transform="matrix(1 0 0 1 72.8096 301.3618)" fill="#F1B43D" font-family="Raleway-Light" font-size="10">&#x41C;&#x435;&#x434;&#x438;&#x446;&#x438;&#x43D;&#x430;</text>
  							      <text id="trading" transform="matrix(1 0 0 1 47.9097 241.3618)" fill="#63BF76" font-family="Raleway-Light" font-size="10">&#x422;&#x43E;&#x440;&#x433;&#x43E;&#x432;&#x43B;&#x44F;</text>
  							      <text id="area" transform="matrix(1 0 0 1 52.5096 176.8618)" fill="#63BF76" font-family="Raleway-Light" font-size="10">&#x423;&#x447;&#x430;&#x441;&#x442;&#x43E;&#x43A;</text>
  							      <text id="location" transform="matrix(1 0 0 1 81.5096 121.6568)" fill="#F1B43D" font-family="Raleway-Light" font-size="10">&#x41B;&#x43E;&#x43A;&#x430;&#x446;&#x438;&#x44F;</text>
  							      <text id="district" transform="matrix(1 0 0 1 145.0096 92.6496)" fill="#63BF76" font-family="Raleway-Light" font-size="10">&#x420;&#x430;&#x439;&#x43E;&#x43D;</text>
  							      <text id="pop-density" transform="matrix(1 0 0 1 224.2491 83.7261)" fill="#F1B43D" font-family="Raleway-Light" font-size="10">&#x41F;&#x43B;&#x43E;&#x442;&#x43D;&#x43E;&#x441;&#x442;&#x44C; &#x437;&#x430;&#x441;&#x435;&#x43B;&#x435;&#x43D;&#x438;&#x44F;</text>
  							      <text id="density-on-the-floor" transform="matrix(1 0 0 1 250.196 95.9261)" fill="#63BF76" font-family="Raleway-Light" font-size="10">&#x41F;&#x43B;&#x43E;&#x442;&#x43D;&#x43E;&#x441;&#x442;&#x44C; &#x43D;&#x430; &#x44D;&#x442;&#x430;&#x436;&#x435;</text>
  							      <text id="planings" transform="matrix(1 0 0 1 272.1563 107.6261)" fill="#F1B43D" font-family="Raleway-Light" font-size="10">&#x41F;&#x43B;&#x430;&#x43D;&#x438;&#x440;&#x43E;&#x432;&#x43A;&#x438;</text>
  							      <text id="ceilings" transform="matrix(1 0 0 1 289.8222 120.3845)" fill="#E12742" font-family="Raleway-Light" font-size="10">&#x41F;&#x43E;&#x442;&#x43E;&#x43B;&#x43A;&#x438;</text>
  							   </g>
  							   <circle id="total-raiting" cx="210.3" cy="210.6" r="46.3"/>
  							   <text transform="matrix(1 0 0 1 239.9404 51.1496)" fill="#FFFFFF" font-family="Raleway-Light" font-weight="bold" font-size="14">&#x41A;&#x43E;&#x43C;&#x444;&#x43E;&#x440;&#x442;</text>
  							   <text transform="matrix(1 0 0 1 112.956 51.1496)" fill="#FFFFFF" font-family="Raleway-Light" font-weight="bold" font-size="14">&#x42D;&#x43A;&#x43E;&#x43B;&#x43E;&#x433;&#x438;&#x44F;</text>
  							   <text transform="matrix(1 0 0 1 85.456 366.6496)" fill="#FFFFFF" font-family="Raleway-Light" font-weight="bold" font-size="14">&#x418;&#x43D;&#x444;&#x440;&#x430;&#x441;&#x442;&#x440;&#x443;&#x43A;&#x442;&#x443;&#x440;&#x430;</text>
  							   <text transform="matrix(1 0 0 1 238.3602 366.6496)" fill="#FFFFFF" font-family="Raleway-Light" font-weight="bold" font-size="14">&#x422;&#x440;&#x430;&#x43D;&#x441;&#x43F;&#x43E;&#x440;&#x442;</text>
  							   <text transform="matrix(1 0 0 1 175.7646 199.2046)" fill="#FFFFFF" font-family="Raleway-Light" font-weight="bold" font-size="9.0288">&#x41E;&#x431;&#x449;&#x438;&#x439; &#x440;&#x435;&#x439;&#x442;&#x438;&#x43D;&#x433;</text>
  							   <text transform="matrix(1 0 0 1 181.9622 227.2689)" fill="#FFFFFF" font-family="Raleway-Light" font-weight="bold" font-size="28.4008">88%</text>
                  </symbol>
							</symbol><symbol id="right-arrow" viewbox="0 0 23.5 53">
  <metadata><?xpacket begin="﻿" id="W5M0MpCehiHzreSzNTczkc9d"?>
<x:xmpmeta xmlns:x="adobe:ns:meta/" x:xmptk="Adobe XMP Core 5.6-c138 79.159824, 2016/09/14-01:09:01        ">
   <rdf:rdf xmlns:rdf="http://www.w3.org/1999/02/22-rdf-syntax-ns#">
      <rdf:description rdf:about="">
   </rdf:description></rdf:rdf>
</x:xmpmeta>
                                                                                                    
                                                                                                    
                                                                                                    
                                                                                                    
                                                                                                    
                                                                                                    
                                                                                                    
                                                                                                    
                                                                                                    
                                                                                                    
                                                                                                    
                                                                                                    
                                                                                                    
                                                                                                    
                                                                                                    
                                                                                                    
                                                                                                    
                                                                                                    
                                                                                                    
                                                                                                    
                           
<?xpacket end="w"?></metadata>

  <path id="Rounded_Rectangle_1_copy_26" data-name="Rounded Rectangle 1 copy 26" class="cls-1" d="M1386.77,390.6L1408.5,416.6l-21.73,26.007" transform="translate(-1385.5 -390.094)"/>
</symbol></svg>